<svg xmlns="http://www.w3.org/2000/svg" viewBox="0 0 24 24" fill="none">
  <path d="M8.2 4.75h6.2l3.1 3.1v8.95a2 2 0 0 1-2 2H8.2a2 2 0 0 1-2-2v-10a2 2 0 0 1 2-2Z" fill="#F8FAFB" stroke="#16353D" stroke-width="1.5" stroke-linejoin="round"/>
  <path d="M14.4 4.75v3.2h3.1" stroke="#16353D" stroke-width="1.5" stroke-linecap="round" stroke-linejoin="round"/>
  <path d="M4.75 7.2H11a1.8 1.8 0 0 1 1.8 1.8v7.25A1.8 1.8 0 0 1 11 18.05H6.55a1.8 1.8 0 0 1-1.8-1.8V7.2Z" fill="#FFF7E8" stroke="#16353D" stroke-width="1.5" stroke-linejoin="round"/>
  <path d="M7.2 10.3h4.2M7.2 12.8h4.2M7.2 15.3h2.7" stroke="#D48A1E" stroke-width="1.5" stroke-linecap="round"/>
  <path d="M15.1 4.75H20.25V9.9" stroke="#16353D" stroke-width="1.5" stroke-linecap="round" stroke-linejoin="round"/>
  <path d="M20 5L14.55 10.45" stroke="#16353D" stroke-width="1.5" stroke-linecap="round"/>
</svg>